<svg width="243" height="45" viewBox="0 0 243 45" fill="none" xmlns="http://www.w3.org/2000/svg">
<path d="M0 0H50.315V9.07781L17.0297 36.0519H50.315V45H0V36.1816L34.5109 8.94813H0V0Z" fill="url(#paint0_linear_265_17321)"/>
<path d="M51.0059 8.94813V22.6945H73.3897C77.9696 22.6945 79.5178 20.6844 79.5178 15.8213C79.5178 11.0879 78.1631 8.94813 73.3897 8.94813H51.0059ZM90.9999 45H80.2918V37.9971C80.2918 33.5879 77.9696 31.6427 71.777 31.6427H51.0059V45H40.2979V0H74.2927C83.5817 0 90.2258 3.04755 90.2258 15.8213C90.2258 22.6945 87.0005 25.6124 83.7107 27.5576C88.1616 29.049 90.9999 30.7997 90.9999 35.6628V45Z" fill="url(#paint1_linear_265_17321)"/>
<path d="M99.1024 35.0346H110.84V37.6167L103.179 42.7003H110.84V45H99V42.317L106.64 37.3343H99.1024V35.0346ZM116.229 37.9193H112.993C112.993 36.2853 113.894 35.0346 117.089 35.0346H122.108C125.303 35.0346 126.409 36.6081 126.409 38.5447V45H123.009V43.8703C122.435 44.6167 122.087 45 120.858 45H116.311C114.242 45 112.911 44.1931 112.911 42.4582V41.2478C112.911 39.5937 113.832 38.6052 117.007 38.6052H121.125C122.128 38.6052 122.64 38.928 123.009 39.5735V38.3228C123.009 37.3141 122.435 37.1124 121.145 37.1124H117.54C116.454 37.1124 116.229 37.2133 116.229 37.5965V37.9193ZM117.847 40.683C116.659 40.683 116.229 40.9452 116.229 41.8127C116.229 42.6196 116.618 42.9222 117.847 42.9222H121.35C122.599 42.9222 123.009 42.6398 123.009 41.8127C123.009 41.0058 122.599 40.683 121.35 40.683H117.847ZM132.42 35.0346V45H129.02V35.0346H132.42ZM129.02 31H132.42V33.7839H129.02V31ZM138.255 35.0346V36.5879C139.034 35.6398 139.771 35.0346 141.492 35.0346H143.479C145.711 35.0346 146.613 35.8818 146.94 36.487C147.555 35.5994 148.21 35.0346 150.75 35.0346H151.959C155.236 35.0346 156.527 36.5879 156.527 38.8473V45H153.126V39.513C153.126 38.1816 152.922 37.3343 150.771 37.3343H149.951C148.251 37.3343 147.391 38.2421 147.391 39.6542V45H143.991V39.6138C143.991 38.2622 143.499 37.3343 141.533 37.3343H140.529C138.89 37.3343 138.255 38.2421 138.255 39.5937V45H134.855V35.0346H138.255ZM161.772 35.0346V36.487C162.591 35.4582 163.267 35.0346 164.68 35.0346H166.381C170.027 35.0346 170.805 36.9712 170.805 39.0893H167.405C167.2 38.2219 166.975 37.3343 165.356 37.3343H164.107C162.735 37.3343 161.772 38.3833 161.772 39.7349V45H158.372V35.0346H161.772ZM181.961 38.8876C181.961 37.9193 181.51 37.072 180.056 37.072H176.922C175.59 37.072 175.201 37.9193 175.201 38.8876H181.961ZM185.218 40.7435H175.201V41.1268C175.201 41.9942 175.427 42.9222 176.819 42.9222H180.753C181.572 42.9222 181.961 42.5187 181.961 41.732H185.218C185.218 43.487 184.378 45 180.957 45H175.98C173.132 45 171.801 43.366 171.801 41.1873V38.6657C171.801 36.9107 173.009 34.9942 176.041 34.9942H180.875C184.214 34.9942 185.218 37.0519 185.218 39.049V40.7435ZM190.282 37.9193H187.046C187.046 36.2853 187.947 35.0346 191.143 35.0346H196.161C199.356 35.0346 200.463 36.6081 200.463 38.5447V45H197.062V43.8703C196.489 44.6167 196.141 45 194.911 45H190.364C188.295 45 186.964 44.1931 186.964 42.4582V41.2478C186.964 39.5937 187.886 38.6052 191.061 38.6052H195.178C196.181 38.6052 196.694 38.928 197.062 39.5735V38.3228C197.062 37.3141 196.489 37.1124 195.198 37.1124H191.593C190.508 37.1124 190.282 37.2133 190.282 37.5965V37.9193ZM191.9 40.683C190.712 40.683 190.282 40.9452 190.282 41.8127C190.282 42.6196 190.671 42.9222 191.9 42.9222H195.403C196.653 42.9222 197.062 42.6398 197.062 41.8127C197.062 41.0058 196.653 40.683 195.403 40.683H191.9ZM206.371 31V45H202.971V31H206.371ZM209.156 45V41.6513H212.557V45H209.156ZM218.182 35.0346V36.487C219.001 35.4582 219.677 35.0346 221.09 35.0346H222.791C226.437 35.0346 227.215 36.9712 227.215 39.0893H223.815C223.61 38.2219 223.385 37.3343 221.766 37.3343H220.517C219.144 37.3343 218.182 38.3833 218.182 39.7349V45H214.781V35.0346H218.182ZM229.01 35.0346H232.41V39.9769C232.41 41.8732 233.373 42.7003 235.339 42.7003H236.671C238.391 42.7003 239.6 41.732 239.6 39.9769V35.0346H243V45H239.6V43.7291C239.108 44.4553 238.125 45 236.671 45H233.414C230.833 45 229.01 43.7291 229.01 40.7839V35.0346Z" fill="url(#paint2_linear_265_17321)"/>
<defs>
<linearGradient id="paint0_linear_265_17321" x1="4.35345e-08" y1="22.1186" x2="50.315" y2="22.1186" gradientUnits="userSpaceOnUse">
<stop stop-color="#1229FE"/>
<stop offset="1" stop-color="#0085FF"/>
</linearGradient>
<linearGradient id="paint1_linear_265_17321" x1="40.2979" y1="22.1186" x2="90.9999" y2="22.1186" gradientUnits="userSpaceOnUse">
<stop stop-color="#1229FE"/>
<stop offset="1" stop-color="#0085FF"/>
</linearGradient>
<linearGradient id="paint2_linear_265_17321" x1="98.2011" y1="39.7529" x2="244.738" y2="39.7529" gradientUnits="userSpaceOnUse">
<stop stop-color="#1229FE"/>
<stop offset="1" stop-color="#0085FF"/>
</linearGradient>
</defs>
</svg>
