<svg width="91" height="45" viewBox="0 0 91 45" fill="none" xmlns="http://www.w3.org/2000/svg">
<path d="M0 0H50.315V9.07781L17.0297 36.0519H50.315V45H0V36.1816L34.5109 8.94813H0V0Z" fill="white"/>
<path d="M51.0059 8.94813V22.6945H73.3897C77.9696 22.6945 79.5178 20.6844 79.5178 15.8213C79.5178 11.0879 78.1631 8.94813 73.3897 8.94813H51.0059ZM90.9999 45H80.2918V37.9971C80.2918 33.5879 77.9696 31.6427 71.777 31.6427H51.0059V45H40.2979V0H74.2927C83.5817 0 90.2258 3.04755 90.2258 15.8213C90.2258 22.6945 87.0005 25.6124 83.7107 27.5576C88.1616 29.049 90.9999 30.7997 90.9999 35.6628V45Z" fill="white"/>
</svg>
