<svg width="55" height="28" viewBox="0 0 55 28" fill="none" xmlns="http://www.w3.org/2000/svg">
<path d="M0 0.5H30.4102V5.94669L10.2927 22.1311H30.4102V27.5H0V22.2089L20.8583 5.86888H0V0.5Z" fill="url(#paint0_linear_265_17422)"/>
<path d="M30.8279 5.86888V14.1167H44.3565C47.1246 14.1167 48.0603 12.9107 48.0603 9.9928C48.0603 7.15274 47.2416 5.86888 44.3565 5.86888H30.8279ZM55.0001 27.5H48.5282V23.2983C48.5282 20.6527 47.1246 19.4856 43.3818 19.4856H30.8279V27.5H24.356V0.5H44.9023C50.5165 0.5 54.5322 2.32853 54.5322 9.9928C54.5322 14.1167 52.5829 15.8674 50.5945 17.0346C53.2846 17.9294 55.0001 18.9798 55.0001 21.8977V27.5Z" fill="url(#paint1_linear_265_17422)"/>
<defs>
<linearGradient id="paint0_linear_265_17422" x1="2.63121e-08" y1="13.7712" x2="30.4102" y2="13.7712" gradientUnits="userSpaceOnUse">
<stop stop-color="#1229FE"/>
<stop offset="1" stop-color="#0085FF"/>
</linearGradient>
<linearGradient id="paint1_linear_265_17422" x1="24.356" y1="13.7712" x2="55.0001" y2="13.7712" gradientUnits="userSpaceOnUse">
<stop stop-color="#1229FE"/>
<stop offset="1" stop-color="#0085FF"/>
</linearGradient>
</defs>
</svg>
